<svg xmlns="http://www.w3.org/2000/svg" width="62" height="60" viewBox="0 0 62 60">
  <g id="car-svgrepo-com" transform="translate(0 -46.229)">
    <path id="Path_3" data-name="Path 3" d="M56.012,68.529,62,63.937l-1.456-2.7-6.071,4.656L48.035,46.229H13.964L7.526,65.895l-6.07-4.656L0,63.937,5.987,68.53a8.625,8.625,0,0,0-4.14,7.656v11.27c0,4.107,2.482,7.533,5.75,8.263v2.8c0,4.252,2.9,7.711,6.464,7.711s6.464-3.459,6.464-7.711V95.863H41.474v2.655c0,4.252,2.9,7.711,6.464,7.711S54.4,102.77,54.4,98.518v-2.8a7.282,7.282,0,0,0,4.94-4.346,9.772,9.772,0,0,0,.81-3.918V76.185A8.625,8.625,0,0,0,56.012,68.529ZM15.8,49.439H29.655V55.63h2.691V49.439H46.2l6,18.338H9.8Zm2.032,49.079c0,2.482-1.692,4.5-3.773,4.5s-3.774-2.018-3.774-4.5V95.863h7.546v2.655Zm30.1,4.5c-2.081,0-3.773-2.018-3.773-4.5V95.863h7.546v2.655C51.712,101,50.019,103.019,47.938,103.019Zm9.523-15.564a5.948,5.948,0,0,1-.5,2.42A4.322,4.322,0,0,1,53.1,92.654H8.9c-2.4,0-4.358-2.332-4.358-5.2V76.185c0-2.867,1.955-5.2,4.358-5.2H53.1c2.4,0,4.357,2.332,4.357,5.2Z" transform="translate(0 0)" fill="#fbb82e"/>
    <path id="Path_4" data-name="Path 4" d="M348.292,244.023a4,4,0,1,0,4,4A4,4,0,0,0,348.292,244.023Zm1.756,4.988a2.071,2.071,0,0,1-2.539.869,2.015,2.015,0,1,1,2.539-.869Z" transform="translate(-298.022 -164.939)" fill="#fbb82e"/>
    <path id="Path_5" data-name="Path 5" d="M64.04,244.023a4,4,0,1,0,4,4A4,4,0,0,0,64.04,244.023Zm0,6.014a2.014,2.014,0,1,1,2.014-2.013A2.016,2.016,0,0,1,64.04,250.037Z" transform="translate(-53.874 -164.939)" fill="#fbb82e" opacity="0.8"/>
  </g>
</svg>