<svg xmlns="http://www.w3.org/2000/svg" width="62" height="62" viewBox="0 0 62 62">
  <path id="car-engine-svgrepo-com" d="M23.322,65.8a1.565,1.565,0,0,1,1.125,1.852,1.486,1.486,0,0,1-1.424,1.241,1.365,1.365,0,0,1-.3-.034C14.226,66.935,7.58,59.8,5.79,50.685a1.565,1.565,0,0,1,1.125-1.852A1.462,1.462,0,0,1,8.64,50.04,19.764,19.764,0,0,0,23.322,65.8ZM28.729,45.8a1.513,1.513,0,0,0-1.456-1.563h-.005A1.567,1.567,0,1,0,28.729,45.8ZM62,14.634V33.67a1.46,1.46,0,1,1-2.913,0v-1.9H36.5l-4.938,9.179a6.827,6.827,0,0,1,1.775,3.293h7.008V36.8a1.46,1.46,0,1,1,2.913,0v8.962c0,.015,0,.031,0,.047a17.683,17.683,0,0,1-5.45,12.9,1.549,1.549,0,0,1-.108.111,15.81,15.81,0,0,1-4.39,2.884,14.964,14.964,0,0,1-5.973,1.272h-.056s-.013,0-.013,0h0a15.069,15.069,0,0,1-7.912-2.252c-.028-.015-.056-.031-.083-.048s-.057-.037-.084-.056a17.81,17.81,0,0,1,0-29.612c.027-.02.056-.039.084-.056s.055-.033.083-.048a15.065,15.065,0,0,1,7.912-2.252,1.36,1.36,0,0,1,.338.042,1.361,1.361,0,0,1,.338-.042h31.14v-8.98H27.947a1.369,1.369,0,0,1-.337-.042,1.369,1.369,0,0,1-.337.042c-13.433,0-24.36,11.727-24.36,26.141S13.84,71.945,27.271,71.945c9.376,0,18.025-5.883,22.034-14.987a1.577,1.577,0,0,1,.257-.4,27.6,27.6,0,0,0,2.156-10.647c0-.013,0-.026,0-.039V36.8a1.46,1.46,0,1,1,2.913,0v8.962c0,.015,0,.031,0,.047,0,16.138-12.234,29.267-27.271,29.267h-.088C12.234,75.071,0,61.942,0,45.8S12.234,16.536,27.271,16.536a1.36,1.36,0,0,1,.338.042,1.361,1.361,0,0,1,.338-.042h31.14v-1.9a1.46,1.46,0,1,1,2.913,0ZM14.273,44.24H21.2a6.827,6.827,0,0,1,1.775-3.293L19.514,34.51A14.28,14.28,0,0,0,14.273,44.24ZM19.513,57.1l3.463-6.437A6.828,6.828,0,0,1,21.2,47.367H14.273A14.279,14.279,0,0,0,19.513,57.1Zm12.994,1.567-3.463-6.438a5.847,5.847,0,0,1-3.547,0l-3.463,6.438a12.254,12.254,0,0,0,5.237,1.175h.057a12.3,12.3,0,0,0,4.8-1.005C32.258,58.779,32.383,58.723,32.507,58.664Zm-5.237-9.289A3.581,3.581,0,1,0,23.942,45.8,3.46,3.46,0,0,0,27.271,49.375Zm4.294,1.284L35.028,57.1a14.279,14.279,0,0,0,5.24-9.73H33.34A6.827,6.827,0,0,1,31.565,50.66Zm1.574-18.892H27.947a1.369,1.369,0,0,1-.337-.042,1.369,1.369,0,0,1-.337.042,12.257,12.257,0,0,0-5.239,1.175L25.5,39.381a5.846,5.846,0,0,1,3.547,0Z" transform="translate(0 -13.071)" fill="#fbb82e"/>
</svg>