<!DOCTYPE svg PUBLIC "-//W3C//DTD SVG 1.1//EN" "http://www.w3.org/Graphics/SVG/1.1/DTD/svg11.dtd">
<!-- Uploaded to: SVG Repo, www.svgrepo.com, Transformed by: SVG Repo Mixer Tools -->
<svg fill="#f8b934" height="64px" width="64px" version="1.1" id="Layer_1" xmlns="http://www.w3.org/2000/svg" xmlns:xlink="http://www.w3.org/1999/xlink" viewBox="0 0 512 512" xml:space="preserve">

<g id="SVGRepo_bgCarrier" stroke-width="0"/>

<g id="SVGRepo_tracerCarrier" stroke-linecap="round" stroke-linejoin="round"/>

<g id="SVGRepo_iconCarrier"> <g> <g> <path d="M449.73,318.27h-32.916l-64.787-64.789c-11.761-11.762-27.399-18.238-44.032-18.238H204.008 c-16.634,0-32.271,6.478-44.032,18.238l-64.79,64.789H83.027V214.487c0-49.596,40.35-89.946,89.946-89.946h92.034 c9.642,47.314,51.575,83.027,101.696,83.027h20.757v-41.513h62.27v-41.514h-62.27V83.027h62.27V41.513h-62.27V0h-20.757 c-50.121,0-92.052,35.713-101.696,83.027h-92.034c-72.487,0-131.459,58.973-131.459,131.459V321.84 C17.354,330.409,0,353.481,0,380.541v89.946h86.597c8.568,24.159,31.64,41.513,58.7,41.513s50.132-17.354,58.7-41.513h104.005 c8.568,24.159,31.64,41.513,58.7,41.513s50.132-17.354,58.7-41.513H512v-89.946C512,346.205,484.066,318.27,449.73,318.27z M345.946,45.07v117.427c-24.162-8.567-41.514-31.653-41.514-58.714S321.784,53.637,345.946,45.07z M145.297,470.487 c-11.445,0-20.757-9.312-20.757-20.757s9.312-20.757,20.757-20.757s20.757,9.312,20.757,20.757S156.743,470.487,145.297,470.487z M366.703,470.487c-11.445,0-20.757-9.312-20.757-20.757s9.311-20.757,20.757-20.757c11.445,0,20.757,9.312,20.757,20.757 S378.148,470.487,366.703,470.487z M470.487,428.973h-45.084c-8.568-24.159-31.64-41.513-58.7-41.513s-50.132,17.354-58.7,41.513 H203.997c-8.568-24.159-31.64-41.513-58.7-41.513s-50.132,17.354-58.7,41.513H41.513v-48.432c0-11.445,9.312-20.757,20.757-20.757 h50.111l76.947-76.948c3.92-3.92,9.134-6.079,14.678-6.079h103.986c5.545,0,10.758,2.159,14.678,6.079l76.949,76.948h50.111 c11.445,0,20.757,9.311,20.757,20.757V428.973z"/> </g> </g> </g>

</svg>