<svg xmlns="http://www.w3.org/2000/svg" width="62" height="62" viewBox="0 0 62 62">
  <g id="service" transform="translate(-1 -1)">
    <path id="Path_1" data-name="Path 1" d="M51,19c-2.792,0-5.148,2.9-6.278,7.19a14.071,14.071,0,0,0-6.912-6.912C42.1,18.147,45,15.792,45,13c0-3.925-5.71-7-13-7S19,9.075,19,13c0,2.792,2.9,5.147,7.19,6.278a14.071,14.071,0,0,0-6.912,6.912C18.148,21.9,15.792,19,13,19c-3.925,0-7,5.71-7,13s3.075,13,7,13c2.792,0,5.148-2.9,6.278-7.19a14.071,14.071,0,0,0,6.912,6.912C21.9,45.853,19,48.208,19,51c0,3.925,5.71,7,13,7s13-3.075,13-7c0-2.792-2.9-5.147-7.19-6.278a14.071,14.071,0,0,0,6.912-6.912C45.852,42.1,48.208,45,51,45c3.925,0,7-5.71,7-13S54.925,19,51,19ZM36.9,31a4.969,4.969,0,0,0-.732-1.753l4.988-4.988A11.939,11.939,0,0,1,43.95,31ZM32,35a3,3,0,1,1,3-3A3,3,0,0,1,32,35Zm2.753-7.167A4.969,4.969,0,0,0,33,27.1v-7.05a11.942,11.942,0,0,1,6.741,2.8ZM31,27.1a4.961,4.961,0,0,0-1.753.732L24.26,22.845A11.939,11.939,0,0,1,31,20.05V27.1Zm-3.167,2.146A4.961,4.961,0,0,0,27.1,31h-7.05a11.942,11.942,0,0,1,2.8-6.741ZM27.1,33a4.969,4.969,0,0,0,.732,1.753l-4.988,4.988A11.939,11.939,0,0,1,20.05,33H27.1Zm2.146,3.167A4.969,4.969,0,0,0,31,36.9v7.05a11.942,11.942,0,0,1-6.741-2.795ZM33,36.9a4.961,4.961,0,0,0,1.753-.732l4.987,4.988A11.939,11.939,0,0,1,33,43.95V36.9Zm3.167-2.146A4.961,4.961,0,0,0,36.9,33h7.05a11.942,11.942,0,0,1-2.795,6.741ZM21,13c0-2.365,4.518-5,11-5s11,2.635,11,5-4.518,5-11,5S21,15.365,21,13ZM13,43c-2.365,0-5-4.518-5-11s2.635-11,5-11,5,4.518,5,11S15.365,43,13,43Zm30,8c0,2.365-4.518,5-11,5s-11-2.635-11-5,4.518-5,11-5S43,48.635,43,51Zm8-8c-2.365,0-5-4.518-5-11s2.635-11,5-11,5,4.518,5,11S53.365,43,51,43Z" fill="#fbb82e"/>
    <path id="Path_2" data-name="Path 2" d="M32,1A31,31,0,1,0,63,32,31.035,31.035,0,0,0,32,1Zm0,60A29,29,0,1,1,61,32,29.033,29.033,0,0,1,32,61Z" fill="#fbb82e"/>
  </g>
</svg>